<?xml version="1.0" encoding="UTF-8"?>
<!DOCTYPE svg PUBLIC "-//W3C//DTD SVG 1.1//EN" "http://www.w3.org/Graphics/SVG/1.1/DTD/svg11.dtd">
<!-- Creator: CorelDRAW 2020 (64-Bit) -->
<svg xmlns="http://www.w3.org/2000/svg" xml:space="preserve" width="1.15925in" height="1.23498in" version="1.1" style="shape-rendering:geometricPrecision; text-rendering:geometricPrecision; image-rendering:optimizeQuality; fill-rule:evenodd; clip-rule:evenodd"
viewBox="0 0 466.11 496.56"
 xmlns:xlink="http://www.w3.org/1999/xlink"
 xmlns:xodm="http://www.corel.com/coreldraw/odm/2003">
 <defs>
  <style type="text/css">
   <![CDATA[
    .str0 {stroke:#0C6140;stroke-width:2.79;stroke-miterlimit:2.61313}
    .fil0 {fill:#0C6140}
   ]]>
  </style>
 </defs>
 <g id="Layer_x0020_1">
  <metadata id="CorelCorpID_0Corel-Layer"/>
  <g id="_569819056736">
   <path class="fil0 str0" d="M225.95 366.89c-0.89,-6.07 4.87,-34.78 1.75,-50.89 -1.46,-7.53 -6.93,-13.56 -8.02,-21.4 -1.43,-10.25 2.89,-13.98 5.43,-23.88 2.1,-8.18 2.25,-15.79 2,-25.96 -0.33,-13.4 -1.06,-14.49 -4.79,-25.29 -3.09,-8.93 -5.43,-11.99 -10.64,-19.26 -5.85,-8.16 -8.53,-7.65 -15.95,-12.44l-151.82 -2.05c-30.73,0.25 -36.5,-4.01 -37.93,11.5 -2.2,23.8 -1.35,173.32 0.58,199.57 15.31,5.41 101.43,2.1 124.03,2.08 24.96,-0.02 63.69,6.41 80.75,-14.13l9.55 -13.34c0.47,-0.5 2.95,-1.91 3.26,-2.97 0.33,-1.1 1.16,-1.08 1.8,-1.55zm-73.87 -74.18c1.06,2.38 38.18,29.93 11.97,62.93 -2.27,2.86 0.19,0.55 -3.51,3.73 -0.41,0.36 -0.99,0.72 -1.42,1.06 -22.63,17.81 19.77,14.14 26.02,11.51 9.75,-4.1 12.27,-11.59 12.95,-24.36 2.92,-54.37 -11.45,-34.19 -19.61,-57.14 7.2,-19.01 26.28,-16.55 19.46,-48.9 -5.87,-27.8 -11.24,-31.35 -44.2,-28.18 0.59,11.48 4.29,7.17 11.55,17.4 10.08,14.21 9.8,30.8 -0.6,45.62l-12.61 16.33zm-59.7 51.71c20.19,1.56 39.6,3.27 51.46,-6.11l-0.54 -18.85c-12.51,-0.98 -26.05,-1.39 -38.02,-1.23 -17.87,0.23 -16.26,8.64 -12.9,26.19zm48.87 -101.04c-10.01,-1.84 -25.6,-1.98 -36.02,-1.81 -11.23,0.18 -10.89,-1.49 -13.66,5.79 -9.25,24.33 23.46,19.85 36.97,18.78 15.61,-1.23 15.33,-7.31 12.71,-22.76zm-106.92 -12.27l-0.16 118.62c-0.11,24.08 -0.41,22.44 25.74,20.54 0.93,-39.37 2.45,-114.68 0.22,-155.15 -22.73,-1.91 -25.8,-5.06 -25.79,15.99z"/>
   <path class="fil0" d="M247.32 194.63c-0.1,64.76 -14.38,46.92 104.55,47.03 10.76,0.01 21.71,-2.21 25.22,6.03 16.37,38.47 -83.12,-4.89 -117.61,30.28 -16.31,16.64 -11.61,32.66 -11.49,62.65l0.49 59.26c26.16,0.2 195.61,2.14 216.42,-0.32 0.74,-66.42 11.35,-55.24 -46.87,-55.49l-82.1 -0.57c-2.99,-25.74 -2.78,-23.79 20.51,-23.75 51.71,0.09 109.7,13.9 109.08,-63.53 -0.54,-66.69 -16.59,-73.81 -81.7,-73.59l-104.93 -0.61c-18.28,0 -31.52,-5.18 -31.55,12.61zm142.52 17.51c-0.31,7.49 5.42,12.63 10.2,18.64 14.45,18.2 2.3,45.92 8.16,56.13 4.55,7.93 19.46,1.6 22.96,-1.61 8.17,-7.49 7,-44.81 3.76,-57.87 -4.72,-19.01 -24.97,-16.8 -45.09,-15.29zm-110.93 158.14c6.21,2.82 20.46,3.04 24.21,-1.03 5.71,-7.68 2.53,-30.9 2.48,-42.32 -0.08,-18.57 6.16,-34.77 -12.9,-34.13 -19.2,0.65 -16.62,13.72 -16.4,31.84 0.16,13.64 -3.08,35.71 2.62,45.63z"/>
   <path class="fil0 str0" d="M274.3 98.59c17.19,0.75 23.24,3.49 33.65,9.88 3.87,25.83 -9.09,20.97 -15.21,33.69 9.2,6.38 18.55,-6.24 55.73,-12.92 13.47,-2.42 28.49,-8.92 31.19,-24.02 2.44,-13.61 -1.04,-8.96 -3.52,-14.63 -21.26,-4.22 -12.29,-3.09 -19.74,-14.08l-16.7 0.37c-0.12,0.55 -0.24,1.27 -0.39,1.87 -0.03,0.11 -1.65,14.58 -22.66,17.78l-3.56 -12.37 -152.84 0.09c-0.41,0.56 -0.74,1.39 -0.96,1.85l-2.29 5.29c-2.02,5.34 0.76,0.12 -1.32,4.6 -9.98,-0.55 -19.95,-4.73 -24.95,-12.55 -0.76,-1.19 -1.65,-3.13 -2.6,-4.88l-2.1 -3.81c-3.97,1.48 -6.56,1.55 -10.28,4.65 -5.34,4.44 0.68,1.24 -5.43,6.07 -4.96,3.92 -11.52,3.3 -16.36,8.19 -5.47,10 6.39,27.32 20.58,31.72l49.33 9c-11.98,-32.26 3.52,-33.72 35,-38.67 16.04,-2.52 63.42,-7.7 75.42,2.87z"/>
   <path class="fil0" d="M274.3 98.59c-12,-10.57 -59.38,-5.39 -75.42,-2.87 -31.49,4.95 -46.99,6.41 -35,38.67l-49.33 -9c-14.19,-4.4 -26.05,-21.72 -20.58,-31.72 4.84,-4.89 11.4,-4.27 16.36,-8.19 6.11,-4.83 0.08,-1.63 5.43,-6.07 3.72,-3.09 6.31,-3.17 10.28,-4.65l2.1 3.81c0.95,1.75 1.85,3.69 2.6,4.88 5,7.82 14.97,12 24.95,12.55 2.08,-4.47 -0.7,0.74 1.32,-4.6l2.29 -5.29c0.21,-0.46 0.55,-1.29 0.96,-1.85l152.84 -0.09 3.56 12.37c21.01,-3.2 22.64,-17.67 22.66,-17.78 0.15,-0.61 0.27,-1.32 0.39,-1.87l16.7 -0.37c7.45,10.98 -1.52,9.86 19.74,14.08 -3.09,-4.48 4.21,-4.38 -10.27,-6.43l3.4 -12.63c-51.76,-1.09 -15.37,-26.04 -101.82,-31.08 -12.27,-0.72 -31.38,-5.37 -41.23,1.34 4.5,3.14 10.68,3.34 16.11,3.54 21.8,0.81 105.16,6.59 91.29,39.28 -24.36,7.4 7.96,-4.07 -41.06,-5.2 -15.28,-0.35 -30.34,-0.5 -45.63,-0.38 -31.73,0.24 -63.36,0.29 -95.07,0.47 -2.14,4.18 -0.07,-0.84 -1.81,5.33 -0.68,2.41 -0.53,3.21 -1.21,5.34 -17.18,-7.98 -15.85,-18.47 2.08,-28.5 7.08,-3.96 12.15,-6.43 20.65,-8.77 10.82,-2.98 16.14,-1.26 22.28,-8.83 -2.58,-1.58 -1.56,-1.59 -6.36,-2.52 -4.09,-0.79 -4.49,-0.68 -8.63,-0.28 -32.79,3.14 -45.28,23.7 -52.78,27.64 -8.58,4.51 -15.69,1.04 -26.9,5.47 1.72,5.62 1.71,2.71 2.34,10.44l64.29 58.61 11.18 4.22c0.41,0.05 1.17,0.03 1.53,0.05l2.97 -0.29c2.14,-5.1 -1.63,-8.14 -5.76,-11.44 -18.42,-14.69 -16.64,-27.05 9.13,-33.48 32.43,-8.09 55.85,-3.27 89.43,-3.91z"/>
   <path class="fil0" d="M274.3 98.59c-12,-10.57 -59.38,-5.39 -75.42,-2.87 -31.49,4.95 -46.99,6.41 -35,38.67l-49.33 -9c-14.19,-4.4 -26.05,-21.72 -20.58,-31.72 4.84,-4.89 11.4,-4.27 16.36,-8.19 6.11,-4.83 0.08,-1.63 5.43,-6.07 3.72,-3.09 6.31,-3.17 10.28,-4.65l2.1 3.81c0.95,1.75 1.85,3.69 2.6,4.88 5,7.82 14.97,12 24.95,12.55 2.08,-4.47 -0.7,0.74 1.32,-4.6l2.29 -5.29c0.21,-0.46 0.55,-1.29 0.96,-1.85l152.84 -0.09 3.56 12.37c21.01,-3.2 22.64,-17.67 22.66,-17.78 0.15,-0.61 0.27,-1.32 0.39,-1.87l16.7 -0.37c7.45,10.98 -1.52,9.86 19.74,14.08 -3.09,-4.48 4.21,-4.38 -10.27,-6.43l3.4 -12.63c-51.76,-1.09 -15.37,-26.04 -101.82,-31.08 -12.27,-0.72 -31.38,-5.37 -41.23,1.34 4.5,3.14 10.68,3.34 16.11,3.54 21.8,0.81 105.16,6.59 91.29,39.28 -24.36,7.4 7.96,-4.07 -41.06,-5.2 -15.28,-0.35 -30.34,-0.5 -45.63,-0.38 -31.73,0.24 -63.36,0.29 -95.07,0.47 -2.14,4.18 -0.07,-0.84 -1.81,5.33 -0.68,2.41 -0.53,3.21 -1.21,5.34 -17.18,-7.98 -15.85,-18.47 2.08,-28.5 7.08,-3.96 12.15,-6.43 20.65,-8.77 10.82,-2.98 16.14,-1.26 22.28,-8.83 -2.58,-1.58 -1.56,-1.59 -6.36,-2.52 -4.09,-0.79 -4.49,-0.68 -8.63,-0.28 -32.79,3.14 -45.28,23.7 -52.78,27.64 -8.58,4.51 -15.69,1.04 -26.9,5.47 1.72,5.62 1.71,2.71 2.34,10.44 -17.96,3.85 -19.46,11.85 -6.52,33.52 5.19,7.4 50.86,15.53 70.81,25.08l11.18 4.22c0.41,0.05 1.17,0.03 1.53,0.05l2.97 -0.29c2.14,-5.1 -1.63,-8.14 -5.76,-11.44 -18.42,-14.69 -16.64,-27.05 9.13,-33.48 32.43,-8.09 55.85,-3.27 89.43,-3.91z"/>
   <path class="fil0" d="M363.19 131.27c26.04,-1.42 24.59,-11.09 30.43,-5.49 8.55,10.17 -8.99,22.1 -18.74,24.88 -14.81,4.23 -8.57,-1.86 -19.34,-3.46 -12.9,-1.9 -8.04,4.29 -21.91,4.4 0.77,-9.28 3.12,-8.5 9.23,-12.81 0.67,-0.47 1.21,-0.86 1.85,-1.32 1.11,-0.81 4.61,-1.48 5.53,-2.39l12.93 -3.81z"/>
   <path class="fil0" d="M63.2 95.27c7.06,-2.67 14.72,-18.63 19.44,-23.83l63.14 -39.33c3.81,-2.12 12.78,-5.38 17.81,-7.29 52.34,-19.86 122.22,-11.6 174.53,12.43 12.45,5.72 56.63,44.41 67.34,54.67 1.6,-8.44 -30.85,-42.19 -43.45,-51.31 -6.05,-4.38 -10.4,-7.7 -16.21,-11.09 -43.28,-25.25 -82.59,-32.84 -137.67,-28.27 -43.35,3.59 -108.33,34.33 -135.33,71.69 -3.65,5.04 -8.98,11.94 -9.59,22.32z"/>
   <path class="fil0" d="M225.95 366.89c-0.64,0.47 -1.47,0.45 -1.8,1.55 -0.31,1.06 -2.78,2.47 -3.26,2.97l-9.55 13.34c-17.06,20.54 -55.79,14.11 -80.75,14.13 -22.6,0.02 -108.72,3.33 -124.03,-2.09 -1.93,-26.25 -2.78,-175.77 -0.58,-199.57 1.43,-15.51 7.2,-11.25 37.93,-11.5l151.82 2.05c-4.18,-5.7 4.86,-1.08 -6.98,-5.03 -2.75,-0.92 -7.16,-1.04 -10.13,-1.17l-75.39 -0.41c-22.09,0 -80.87,-2.6 -98.76,1.55 -6.66,14.89 -4.68,206.25 -1.61,218.26 14.89,8.08 103.3,3.13 127.75,3.1 45.11,-0.05 85.35,3.9 95.36,-37.18z"/>
   <path class="fil0" d="M108.04 128.6c-26.04,-1.41 -24.59,-11.09 -30.44,-5.49 -8.55,10.17 8.99,22.1 18.74,24.88 14.81,4.23 8.57,-1.86 19.34,-3.46 12.9,-1.9 8.04,4.29 21.91,4.4 -0.77,-9.28 -3.12,-8.5 -9.23,-12.81 -0.67,-0.47 -1.21,-0.86 -1.85,-1.32 -1.11,-0.81 -4.61,-1.48 -5.53,-2.39l-12.93 -3.81z"/>
   <g>
    <path class="fil0" d="M58.72 450.67l-26.29 0.44 -0.21 26.73 28.29 0.47c3.85,0.81 2.48,17.44 -0.44,17.8l-38.78 -0.45c-5.67,-1.32 -9.77,-3.58 -12.92,-15.15l0 -37.43c2.84,-9.02 5.04,-8.81 13.81,-10.69l36.54 -0.89c5.47,0.31 4.92,19.82 0,19.16z"/>
    <path class="fil0" d="M73.83 446.65c1.13,-6.72 3.65,-10.63 8.49,-11.56l40.77 -0.23c6.18,1.15 9.03,6.87 9.58,12.68l0.22 35.45c0.09,6.45 -4.26,12.57 -7.13,12.91l-44.11 0c-5.69,-2.05 -7.63,-7.31 -7.8,-13.15l-0.02 -36.09zm26.43 4.16l6.31 0c1.58,0 2.86,1.36 2.86,3.01l0 21.2c0,1.66 -1.29,3.01 -2.86,3.01l-6.31 0c-1.58,0 -2.86,-1.36 -2.86,-3.01l0 -21.2c0,-1.66 1.28,-3.01 2.86,-3.01z"/>
    <path class="fil0" d="M146.33 495.85c-2.69,-1.56 -3.84,-3.78 -3.57,-6.61l0.6 -51.41c0.53,-2.48 2.13,-4.21 4.46,-5.43l34.31 0c12.99,1.11 19.76,7.86 22.06,20.29l0 36.57c-0.84,3.91 -1.99,6.07 -5.8,6.84l-17.37 0 0.67 -42c0.19,-2.65 -1.08,-5.04 -3.56,-5.54l-11.14 -0.12c-2.05,0.46 -3.47,3.08 -3.56,6.02l-0.37 35.96c0.26,2.55 -1.38,4.37 -2.9,5.66l-13.81 -0.23z"/>
    <path class="fil0" d="M286.84 433.74l37.87 0c3.01,4.87 2.79,9.72 0.44,14.59l-26.73 0 0 9.17 26.52 0.24 0.22 14.59 -25.17 -0.47 -0.22 10.35 25.39 0c1.33,4.88 1.26,9.51 0.22,14.35l-40.32 -0.7c-4.87,-0.08 -8.2,-3.37 -10.69,-8.47l-0.44 -39.76c2.38,-8.56 6.38,-13.8 12.91,-13.89z"/>
    <path class="fil0" d="M338.97 496.33c-2.15,-1.02 -3.2,-3 -3.56,-5.56l0 -52.73c0.32,-1.98 1.55,-3.19 3.34,-3.94l41.56 -0.69c9.32,3.05 14,6.29 15.6,11.82l-0 21.32c-0.73,4.9 -3.21,7.61 -6.9,8.81l-28.29 0c-2.43,1.14 -3.65,3.49 -3.71,6.48l0.14 10.09c0.26,1.88 -0.06,3.3 -0.99,4.26l-17.18 0.15zm23.38 -44.85l7.58 0c1.23,0 2.23,1.04 2.23,2.32l0 5.1c0,1.27 -1,2.31 -2.23,2.31l-7.58 0c-1.23,0 -2.23,-1.04 -2.23,-2.31l0 -5.1c0,-1.28 1,-2.32 2.23,-2.32z"/>
    <path class="fil0" d="M420.97 448.19l-15.23 -0.04c-2.82,-4.04 -3.21,-11.34 -0.02,-16.31l56.14 0c5.36,5.16 4.25,12.97 -0.11,16.43l-14.59 0.35 0 40.54c-0.17,3.24 -3.24,5.85 -4.46,6.06l-15.37 0c-2.93,-0.08 -5.83,-2.71 -5.79,-6.52l-0.57 -40.51z"/>
    <path class="fil0" d="M261 450.67l-26.29 0.44 -0.21 26.73 28.29 0.47c3.85,0.81 2.24,17.66 -0.68,18.02l-38.54 -0.67c-5.67,-1.32 -9.77,-3.58 -12.92,-15.15l0 -37.43c2.84,-9.02 5.04,-8.81 13.81,-10.69l36.54 -0.89c5.47,0.31 4.92,19.82 0,19.16z"/>
   </g>
  </g>
 </g>
</svg>
