<svg xmlns="http://www.w3.org/2000/svg" viewBox="0 0 524.09 150.08"><defs><style>.cls-1{fill:#136341;}.cls-2{fill:#126241;}.cls-3{fill:#156342;}.cls-4{fill:#a6cf44;}.cls-5{fill:#106240;}</style></defs><title>bazeet</title><g id="Layer_2" data-name="Layer 2"><g id="Layer_1-2" data-name="Layer 1"><path class="cls-1" d="M207.25,96.37c1-4.75,2-9.32,3-13.9Q215.62,57.19,221,31.9c.62-2.9.6-2.91,3.48-2.91h34.13a11.69,11.69,0,0,1,5.5,1c3.74,1.91,5.53,5.19,6.31,9.09,1.86,9.35-3.54,18.41-11.12,22.13-.28.14-.65.2-.8.55.29.46.76.55,1.14.76a12.85,12.85,0,0,1,7,11.07c.67,10.63-5.12,17.11-12.91,20.28a33,33,0,0,1-12.19,2.5c-11.15.09-22.29.05-33.44.06A8.09,8.09,0,0,1,207.25,96.37Zm22-15.61c4.73,0,9.23,0,13.72,0a4.46,4.46,0,0,0,2.77-1.2c2.43-2,2.78-4.61,2.27-7.44a3,3,0,0,0-3.19-2.52c-4,0-8.1,0-12.15,0-.76,0-1.15.21-1.3,1C230.73,73.89,230,77.23,229.28,80.76Zm14-35.89h0c-1.72,0-3.43,0-5.15,0-.76,0-1.23.09-1.41,1-.54,2.68-1.25,5.33-1.86,8-.25,1.07-.16,1.18,1,1.19,3.26,0,6.52,0,9.78,0a9.9,9.9,0,0,0,1.19-.12,4.66,4.66,0,0,0,4.11-3.38,10.37,10.37,0,0,0,.4-4.07c-.12-1.79-.92-2.59-2.7-2.63S245,44.87,243.26,44.87Z"/><path class="cls-2" d="M311.17,53.08c.41-1.82.82-3.53,1.15-5.26.13-.67.39-1,1.11-1,5.6,0,11.2.05,16.8.08a.49.49,0,0,1,.16.06c.22.4,0,.77,0,1.16q-3,13.81-5.92,27.63a10.71,10.71,0,0,0-.35,3.06c.09,1.12.48,2,1.72,2.22.87.13.77.6.64,1.22Q325,89,323.6,95.67c-.1.48-.28.85-.82,1-3.71.72-7.43,1.4-11.2.39-.44-.12-.86-.3-1.29-.46a5.56,5.56,0,0,1-3.85-5.16,3.82,3.82,0,0,0-.28-1.89,11.57,11.57,0,0,0-1.86,1.77,21.69,21.69,0,0,1-16.17,6.22,16.45,16.45,0,0,1-15-11.19A30.66,30.66,0,0,1,273,67.73a33.59,33.59,0,0,1,7-13,25.45,25.45,0,0,1,14.88-8.85c3.83-.7,7.63-.58,11.13,1.51a10.3,10.3,0,0,1,4.33,4.72,10,10,0,0,0,.49.89S310.91,53,311.17,53.08ZM297.61,82.2a7,7,0,0,0,3.75-1.11,25,25,0,0,0,3.79-2.92,4.26,4.26,0,0,0,1.36-2.48c.35-1.91.7-3.82,1.2-5.69A7.25,7.25,0,0,0,306,63.18a6.26,6.26,0,0,0-8.6-1.28,14.62,14.62,0,0,0-6.33,15C291.7,80.11,294,82.07,297.61,82.2Z"/><path class="cls-2" d="M479.59,83.91a10.42,10.42,0,0,1-1.72,2.34,34.42,34.42,0,0,1-20.66,10.91,24.89,24.89,0,0,1-13.65-1.33c-7.24-3-11.12-8.53-12.12-16.15-1.77-13.45,6.31-27.67,22.18-32.57a33.45,33.45,0,0,1,19.27-.45,25.11,25.11,0,0,1,2.57.94c10.42,4.2,10.45,18.35,2.57,23.77a31,31,0,0,1-12.7,4.84,84.87,84.87,0,0,1-13.68.94c-1.54,0-1.54,0-1.45,1.48.27,4.39,1.9,5.91,6.29,5.81a9.84,9.84,0,0,0,8.23-4.19c.42-.59.73-1,1.64-.66C470.68,81.06,475,82.43,479.59,83.91ZM452.05,66.19a45.69,45.69,0,0,0,9.32-.49,10,10,0,0,0,2-.47,3.29,3.29,0,0,0,2.49-3.29A3.57,3.57,0,0,0,463,58.68a6.75,6.75,0,0,0-6,1A15.56,15.56,0,0,0,452.05,66.19Z"/><path class="cls-2" d="M425.73,83.9a8.9,8.9,0,0,1-1.59,2.22,34.37,34.37,0,0,1-20.6,11,24.94,24.94,0,0,1-13.82-1.31c-7.38-3-11.28-8.72-12.15-16.49C376,64.94,385,51.56,399.94,47.06a33.71,33.71,0,0,1,19.1-.41c.66.18,1.3.43,1.94.68,8.7,3.35,9.87,11.39,8.1,17.36a12.54,12.54,0,0,1-4.62,6.44,27.06,27.06,0,0,1-11.1,4.73,73,73,0,0,1-13.47,1.28c-.91,0-1.83,0-2.75,0-.58,0-.85.19-.8.79s0,1.26.12,1.88c.39,3,1.93,4.45,5,4.61,3.91.21,7.22-1,9.53-4.31a1.13,1.13,0,0,1,1.54-.52C416.84,81,421.19,82.43,425.73,83.9ZM398.59,66.23A44.63,44.63,0,0,0,409,65.42a4.38,4.38,0,0,0,1.95-1,3.12,3.12,0,0,0,.38-4.31,4.08,4.08,0,0,0-2.11-1.39A7.11,7.11,0,0,0,402,60.6a16.72,16.72,0,0,0-3.37,4.7A.89.89,0,0,0,398.59,66.23Z"/><path class="cls-1" d="M493.85,60.11h-5.6a35.54,35.54,0,0,1,.9-4.76c.49-2.46,1.06-4.91,1.6-7.37.32-1.47.33-1.47,1.89-1.48h2.75c1.5,0,1.52,0,1.85-1.54,1-4.35,1.91-8.7,2.82-13.06.16-.78.38-1.2,1.29-1.2,5.49,0,11,0,16.47,0a1.93,1.93,0,0,1,.43.13,51.34,51.34,0,0,1-1.16,5.81c-.58,2.85-1.25,5.69-1.86,8.54-.25,1.2-.19,1.27,1,1.28,2.57,0,5.14,0,7.63,0,.35.57.11,1,0,1.43-.76,3.58-1.48,7.16-2.3,10.72-.37,1.6,0,1.43-1.73,1.44-2.17,0-4.35,0-6.52,0-1.33,0-1.34,0-1.59,1.21q-1.64,7.8-3.27,15.59a5.12,5.12,0,0,0-.1.85c-.09,2.41.87,3.38,3.28,3.23a16.51,16.51,0,0,0,4-.8,5.64,5.64,0,0,1,1.8-.51,4.14,4.14,0,0,1,.15,1.87c0,3.6,0,7.21,0,10.81a1.59,1.59,0,0,1-1.24,1.86c-5.38,1.79-10.76,3.52-16.54,3.29a19.68,19.68,0,0,1-4.73-.73,8.67,8.67,0,0,1-6.46-8,26.54,26.54,0,0,1,.86-8q2.12-10,4.22-19.95A5.72,5.72,0,0,0,493.85,60.11Z"/><path class="cls-3" d="M357.32,59.27a4.53,4.53,0,0,0-2.16-.31H339.38c-1.44,0-1.44,0-1.14-1.46q1-4.78,2-9.56c.29-1.41.3-1.42,1.78-1.42h35.35a1.85,1.85,0,0,1,1.44.28c-.56,2.72-1.21,5.49-1.68,8.29a6.76,6.76,0,0,1-2.1,3.78q-11.74,11.8-23.41,23.67c-.4.4-.78.82-1.16,1.21a2.12,2.12,0,0,0,.11.21.31.31,0,0,0,.11.11.42.42,0,0,0,.17,0l20.42,0c.05,0,.1,0,.29.14-.22,2-.78,3.93-1.17,5.92-.34,1.74-.75,3.46-1,5.21-.14.84-.51,1.22-1.36,1.09a3.43,3.43,0,0,0-.51,0H330.2a3.18,3.18,0,0,1-1.63-.19c.68-3.31,1.37-6.65,2.06-10,.15-.73.76-1.13,1.23-1.61q11.93-12.1,23.87-24.18A18.51,18.51,0,0,1,357.32,59.27Z"/><path class="cls-4" d="M384.72,117.05c.4-1.71.76-3,1-4.26.14-.89.59-1.13,1.4-1.09s1.6,0,2.4,0c1.14,0,1.2.09,1,1.18-.68,3.24-1.37,6.48-2.06,9.72-.79,3.74-1.58,7.49-2.39,11.22-.17.76-.37,1.47.51,1.93.38.2.39.53.32.88-.1.5-.21,1-.31,1.51-.42,2-.78,2.23-2.93,2a2.35,2.35,0,0,1-2.36-2.75c0-.62.11-1.24.16-1.88-.63,0-.78.48-1.08.77a14.5,14.5,0,0,1-8.45,4.17c-5.5.61-9.14-2.8-10.49-7a15.27,15.27,0,0,1-.31-8.46,18.09,18.09,0,0,1,9-12.15,12.71,12.71,0,0,1,6.24-1.61,8.37,8.37,0,0,1,7.33,4C384,115.72,384.23,116.22,384.72,117.05Zm-11.32,19.31c2.84-.26,5.49-2,7.65-4.59a6.1,6.1,0,0,0,1.24-2.78c.41-2.07.82-4.14,1.26-6.2a3.14,3.14,0,0,0,.11-1.35c-.87-3.91-4.56-6.92-8.77-5.88-6.46,1.6-11,9.94-8.6,16.14C367.41,134.67,369.81,136.39,373.41,136.36Z"/><path class="cls-4" d="M303.41,128.58c-.24-8.11,6.93-17,16.35-17.31,6.29-.23,10.9,4,11.44,10.31.8,9.21-6.21,17.15-14.13,18.66a12.1,12.1,0,0,1-7.25-.53c-4-1.76-5.91-5-6.41-9.23A16.19,16.19,0,0,1,303.41,128.58Zm4.81-.4a9.49,9.49,0,0,0,1.34,5.07,6,6,0,0,0,5.37,3.12,9,9,0,0,0,3.82-.8A13.25,13.25,0,0,0,326,121.22c-1-4.67-5-6.91-9.47-5.32C311.78,117.59,308.2,122.86,308.22,128.18Z"/><path class="cls-4" d="M475,133.38a11.7,11.7,0,0,1-3.49,3.77,15.75,15.75,0,0,1-10.4,3.31A10.47,10.47,0,0,1,451,131.37a17.37,17.37,0,0,1,17.77-20.11,11.74,11.74,0,0,1,3.52.67c2.83,1,4.61,2.87,4.9,6a7.19,7.19,0,0,1-3.43,7.32,16.51,16.51,0,0,1-7.17,2.11,48.31,48.31,0,0,1-9.42.08c-1.57-.13-1.68,0-1.58,1.55a12.61,12.61,0,0,0,.5,3,6.66,6.66,0,0,0,7.82,4.83,10,10,0,0,0,6.57-3.69,1.53,1.53,0,0,1,2-.57C473.3,132.87,474.07,133.08,475,133.38Zm-13.54-9.06v-.08c1,0,2.06.06,3.08,0a14.6,14.6,0,0,0,5.94-1.43,4.37,4.37,0,0,0,2.46-4.82c-.31-1.66-1.72-2.75-3.9-3-6.16-.76-10.36,2.82-12.41,8.08-.3.78,0,1.06.72,1.1C458.72,124.2,460.09,124.25,461.46,124.31Z"/><path class="cls-4" d="M241,139.87c.46-2.23.9-4.4,1.36-6.56q2.09-9.89,4.2-19.79c.39-1.81.4-1.81,2.18-1.81,2.58,0,2.58,0,2,2.54q-.18.84-.32,1.68a2.17,2.17,0,0,0,0,.52c.74.2,1-.44,1.38-.79a16.3,16.3,0,0,1,8.8-4.3,10.5,10.5,0,0,1,3.42,0,4.93,4.93,0,0,1,4.32,4.26,14.47,14.47,0,0,1-.18,6.13c-1.16,5.71-2.4,11.41-3.56,17.12-.17.83-.46,1.2-1.33,1.14s-1.72,0-2.57,0-1.08-.11-.87-1.14c.48-2.35,1-4.69,1.49-7,.69-3.47,1.62-6.9,2.06-10.42a8.83,8.83,0,0,0-.19-3.23,3.12,3.12,0,0,0-3-2.55,7.15,7.15,0,0,0-2.88.33,13.87,13.87,0,0,0-7.62,6.32,4.75,4.75,0,0,0-.54,1.44q-1.53,7.3-3.1,14.59c-.07.34-.16.67-.23,1s-.29.73-.79.72A27.69,27.69,0,0,1,241,139.87Zm9.5-23s-.08-.07-.1-.06-.12.08-.11.1.13.17.2.07S250.49,116.87,250.5,116.83Z"/><path class="cls-4" d="M281.22,117c.49-.47,1-.94,1.45-1.39a15.35,15.35,0,0,1,10.69-4.36c3.79,0,5.76,2,6,5.83a34.39,34.39,0,0,1-1.15,8.64c-.87,4.25-1.79,8.5-2.7,12.74-.32,1.52-.32,1.54-1.87,1.52a12.41,12.41,0,0,1-3.18-.15c.62-2.94,1.23-5.83,1.83-8.73q.86-4.11,1.71-8.22a12.62,12.62,0,0,0,.17-3.93c-.24-2.27-1.49-3.34-3.74-3.38a8.73,8.73,0,0,0-4.25,1.16,14.28,14.28,0,0,0-4.68,4,9.12,9.12,0,0,0-1.75,3.86c-1,4.76-2,9.49-3,14.25-.18.92-.52,1.29-1.45,1.21-.68-.06-1.37,0-2.06,0-1.47,0-1.52-.07-1.24-1.42q2.72-12.83,5.44-25.65c.18-.84.5-1.33,1.46-1.23a14.06,14.06,0,0,0,2.06,0c.76,0,1,.29.88,1q-.37,1.67-.71,3.35A.93.93,0,0,0,281.22,117Z"/><path class="cls-4" d="M501,117.87a10.27,10.27,0,0,0-6.11-3.07,9.34,9.34,0,0,0-5,.63,4.83,4.83,0,0,0-3.13,4.34,2.6,2.6,0,0,0,1.61,2.75,18.55,18.55,0,0,0,3.06,1.09,52.81,52.81,0,0,1,5.39,1.68c3.6,1.43,5.71,4,3.41,9.14a8.49,8.49,0,0,1-4.11,4.23,16.73,16.73,0,0,1-16.69-.64c-2.2-1.3-2.14-1.41-.47-3.35,1.18-1.38,1.17-1.36,2.68-.22a11.62,11.62,0,0,0,10.52,2.11,5.11,5.11,0,0,0,4.06-4,2.84,2.84,0,0,0-1.66-3.54,20.7,20.7,0,0,0-3.86-1.38,36.77,36.77,0,0,1-5-1.64c-3.2-1.43-4.12-3.31-3.37-6.73a8.56,8.56,0,0,1,3.81-5.5,14.21,14.21,0,0,1,15.11-.8,8.82,8.82,0,0,1,1.42,1c1.19,1,1.18,1,.15,2.06C502.13,116.58,501.6,117.17,501,117.87Z"/><path class="cls-4" d="M433.86,135.38a11.4,11.4,0,0,0,1.86-2.42,74,74,0,0,0,9.3-17.87,24.5,24.5,0,0,0,.74-2.46,1,1,0,0,1,1.17-.94c.91,0,1.83,0,2.74,0,.63,0,.8.34.63.89-.38,1.2-.74,2.4-1.16,3.58a82.17,82.17,0,0,1-10.28,18.91c-.42.61-.86,1.21-1.3,1.81-2.41,3.3-2.41,3.27-6.42,3.11-.81,0-1.08-.32-1.19-1.07-.47-3.1-1-6.2-1.5-9.3q-1.33-8.37-2.62-16.75c-.18-1.14-.17-1.14.95-1.19,3.83-.18,3.8-.17,4.28,3.62.82,6.46,1.68,12.91,2.53,19.36A4.3,4.3,0,0,0,433.86,135.38Z"/><path class="cls-4" d="M343.59,135.33c.53,0,.62-.34.77-.56,4.76-6.82,9-13.91,11.24-22a1.22,1.22,0,0,1,1.45-1.06c1.06.06,2.13,0,3.35,0a41.46,41.46,0,0,1-2.29,6.84,94,94,0,0,1-12.38,20.68,1.7,1.7,0,0,1-1.58.78,25,25,0,0,0-2.91,0c-.92.06-1.31-.27-1.44-1.21-.41-2.94-.9-5.87-1.37-8.8q-1.31-8.21-2.62-16.41c0-.17-.06-.34-.08-.51-.16-1.3-.13-1.34,1.2-1.37.86,0,1.72,0,2.57,0s1,.27,1.07,1c.4,3.17.85,6.34,1.27,9.51C342.42,126.55,343,130.91,343.59,135.33Z"/><path class="cls-4" d="M406.25,134.94c.83,4.1.81,3.89-2.82,4.94a10.14,10.14,0,0,1-5.58.22,3.73,3.73,0,0,1-3.16-4.06,23.49,23.49,0,0,1,.86-5.05c.92-4.47,1.91-8.93,2.87-13.4.06-.28.1-.56.14-.84.18-1.19.15-1.22-1.11-1.27-.46,0-.91,0-1.37,0s-.83-.27-.7-.86c0-.22.06-.46.12-.68.66-2.35-.07-2.22,2.7-2.23,1.4,0,1.4,0,1.72-1.5.48-2.23,1-4.46,1.42-6.7.17-.85.54-1.28,1.48-1.2a26.73,26.73,0,0,1,3.52.16c-.52,2.44-1,4.84-1.53,7.23-.43,2-.43,2,1.58,2h3.09c.59,0,.83.29.71.87,0,.11,0,.23-.05.34-.38,2.54-.38,2.54-2.93,2.54h-2.06c-1.52,0-1.52,0-1.82,1.42q-.86,4-1.71,8-.78,3.69-1.55,7.37a8.17,8.17,0,0,0-.22,1.35,2,2,0,0,0,2,2.28,5.22,5.22,0,0,0,2.37-.26Z"/><path class="cls-4" d="M240.88,101.63c-.74,3.54-1.42,6.83-2.12,10.12q-2.84,13.32-5.69,26.63c-.34,1.61-.34,1.63-1.95,1.61a13.74,13.74,0,0,1-3.13-.13,38.91,38.91,0,0,1,.95-4.88q3.4-16,6.82-32c.29-1.34.3-1.35,1.63-1.36Z"/><path class="cls-4" d="M410.87,139.85a19,19,0,0,1,.77-4.39c1.54-7.43,3.15-14.85,4.73-22.28.31-1.45.31-1.51,1.75-1.45,1.05,0,2.46-.54,3.07.3S421,114,420.76,115q-2.51,11.9-5.07,23.78c-.26,1.23-.28,1.26-1.55,1.24A12.82,12.82,0,0,1,410.87,139.85Z"/><path class="cls-4" d="M73,149.93C35.59,151.5,6.11,140.18.83,119.54c-7-27.46,31.45-61,85.94-75,1.56-.39,3.11-.77,4.66-1.13-47.11,13.46-79.13,45.72-72,73.4C24.13,135.39,45.25,147.32,73,149.93Z"/><path class="cls-5" d="M67.87,53.65c1.45-2.13,2.57-4.44,3.82-6.69Q84.38,24.21,97,1.43a5,5,0,0,0,.33-.6c.3-.77.78-1,1.61-.75,4.32,1.1,8.65,2.12,12.92,3.39a41.35,41.35,0,0,1,5.47,2c5,2.28,5.9,4.79,3.54,9.69a50.5,50.5,0,0,1-3.28,5.62c-4.62,7.09-9.36,14.1-13.6,21.42a3.84,3.84,0,0,0-.81,1.67,2.4,2.4,0,0,0-.22.19c.13.19.28.12.42,0a55.71,55.71,0,0,1,8.46-2,46.44,46.44,0,0,1,15.76.83c.61.13,1.22.29,1.82.43l2.27.71c9.7,3.13,16.76,9.17,20.45,18.8a34.11,34.11,0,0,1,2,15.68,65.11,65.11,0,0,1-14.79,36.26c-8.44,10.14-18.88,17.47-31.74,20.84-14,3.68-27.49,1.81-40.18-5a34,34,0,0,1-17.53-22.22c-1.64-6.42-1.05-12.82.66-19.15a76.31,76.31,0,0,1,7.17-17.19q4.08-7.34,8.14-14.69A26,26,0,0,0,67.87,53.65Zm25.54,61a24.38,24.38,0,0,0,3.39-.22A25.23,25.23,0,0,0,109,108.59a47.16,47.16,0,0,0,16.12-26,24.55,24.55,0,0,0,.75-6.62c-.22-5.38-2.71-9.21-7.71-11.32a22.73,22.73,0,0,0-8.51-1.77,24,24,0,0,0-15.53,5.47A46.31,46.31,0,0,0,76.64,98a13.4,13.4,0,0,0,7.78,14.65A20.81,20.81,0,0,0,93.4,114.66Z"/><path class="cls-4" d="M113,144.9q-3.34.86-6.67,1.59l.12,0c76-25.59,74.47-67.92,74.47-67.92.19-25-26.24-35.11-44.12-39.08,18.69.39,34.81,4.21,46.06,10.92,8.14,5.3,13.87,12.2,16.29,20.49,0,0,0,0,0,0C205.05,98.18,166.84,131.14,113,144.9Z"/></g></g></svg>